<?xml version="1.0" encoding="UTF-8"?>
<!-- Generator: Adobe Illustrator 26.0.1, SVG Export Plug-In . SVG Version: 6.00 Build 0)  -->
<svg version="1.1" id="Laag_1" xmlns="http://www.w3.org/2000/svg" xmlns:xlink="http://www.w3.org/1999/xlink" x="0px" y="0px" viewBox="0 0 1920 1080" style="enable-background:new 0 0 1920 1080;" xml:space="preserve">
<style type="text/css">
	.st0{fill:#1D1D1B;}
	.st1{fill:#E30613;}
</style>
<polygon class="st0" points="455.3,473.7 386.7,696.2 318.1,473.7 214.4,473.7 326.6,785.7 446.2,785.7 558.5,473.7 "/>
<rect x="582.2" y="473.7" class="st0" width="96.9" height="311.9"/>
<polygon class="st0" points="874.7,696.2 943.3,473.7 1046.4,473.7 934.2,785.7 814.6,785.7 702.4,473.7 806.1,473.7 "/>
<path class="st0" d="M1269.1,599.5c0-16.4-5.7-29.4-17-39.1c-11.3-9.7-25.5-14.5-42.5-14.5c-16.2,0-29.9,4.7-41.1,14  s-18,22.6-20.7,39.7L1269.1,599.5z M1366.6,652.6h-219.3c1.5,19.4,7.8,34.2,19,44.4c11.2,10.2,24.8,15.4,41.1,15.4  c24.2,0,41-10.1,50.4-30.2h103.1c-5.2,20.4-15,39.3-28.6,55.3c-13.8,16.4-31.1,29.3-51.8,38.6s-44,14-69.7,14  c-31,0-58.6-6.5-82.7-19.6c-23.9-12.8-43.6-32.2-56.7-55.9c-13.6-24.2-20.4-52.6-20.4-85s6.7-60.8,20.1-85  c12.9-23.7,32.5-43.2,56.4-55.9c24.2-13,51.9-19.6,83.3-19.6c30.6,0,57.8,6.3,81.6,19c23.4,12.3,42.8,31.1,55.8,54.2  c13.4,23.5,20.1,50.9,20.1,82.2C1368.3,634,1367.7,643.3,1366.6,652.6"/>
<path class="st0" d="M1457.3,776.2c-21.5-9.3-38.5-22.1-51-38.3c-12.3-15.7-19.6-34.6-21-54.5h95.8c1.1,10.8,6.2,19.6,15.3,26.3  s20.2,10.1,33.4,10.1c12.1,0,21.4-2.3,28.1-7c6.6-4.7,9.9-10.7,9.9-18.2c0-8.9-4.7-15.6-14.2-19.8c-9.4-4.3-24.7-9-45.9-14.2  c-22.7-5.2-41.6-10.7-56.7-16.5c-15.1-5.8-28.5-15.2-39.1-27.4c-11-12.5-16.4-29.3-16.4-50.6c-0.1-17.5,5.1-34.5,15-48.9  c10-14.7,24.7-26.4,44.2-34.9c19.5-8.6,42.6-12.9,69.4-12.9c39.7,0,70.9,9.7,93.8,29.1s36,45.1,39.4,77.1h-89.5  c-1.5-10.8-6.3-19.4-14.4-25.7c-8.1-6.3-18.8-9.5-32-9.5c-11.3,0-20,2.1-26.1,6.4c-5.9,3.9-9.3,10.6-9.1,17.6  c0,9,4.8,15.7,14.4,20.1s24.6,8.9,45,13.4c23.4,6,42.5,11.8,57.2,17.6c14.7,5.8,27.7,15.1,38.8,28c11.1,12.9,16.9,30.1,17.3,51.7  c0,18.3-5.2,34.6-15.6,48.9c-10.4,14.3-25.3,25.6-44.8,33.8c-19.5,8.2-42,12.3-67.7,12.3C1503.4,790.2,1478.8,785.5,1457.3,776.2"/>
<path class="st0" d="M933.7,317.9c4.6,2.6,8.3,6.5,10.6,11.3c2.5,5,3.8,10.9,3.8,17.9v45.2h-19.5v-42.6c0-6.1-1.5-10.8-4.6-14.1  c-3.1-3.3-7.2-4.9-12.5-4.9c-5.4,0-9.6,1.6-12.7,4.9c-3.1,3.3-4.7,8-4.7,14.1v42.6h-19.5V289.3h19.5v35.5c2.6-3.4,6.1-6.1,10-7.9  c4.4-1.9,9.1-2.9,13.9-2.9C923.6,314,929,315.3,933.7,317.9z"/>
<path class="st0" d="M978.1,388.6c-5.9-3.3-10.7-8.1-14-14c-3.5-6.4-5.2-13.6-5.1-20.9c-0.1-7.3,1.7-14.5,5.2-20.9  c3.3-5.9,8.3-10.8,14.3-14c12.6-6.6,27.7-6.6,40.3,0c6,3.2,10.9,8.1,14.3,14c3.6,6.4,5.4,13.6,5.2,20.9c0.1,7.3-1.7,14.5-5.4,20.9  c-3.4,5.9-8.4,10.8-14.5,14c-6.3,3.3-13.3,5-20.4,4.9C991.1,393.6,984.2,391.9,978.1,388.6z M1008.1,374c3.2-1.8,5.8-4.5,7.4-7.7  c2-3.9,2.9-8.2,2.8-12.5c0-7.3-1.9-13-5.8-16.9c-3.7-3.9-8.8-6-14.1-5.9c-5.3-0.1-10.4,2-14,5.9c-3.7,3.9-5.6,9.6-5.6,16.9  c0,7.3,1.8,13,5.5,16.9c3.5,3.9,8.6,6,13.8,5.9C1001.6,376.5,1005,375.7,1008.1,374L1008.1,374z"/>
<path class="st0" d="M1095.2,317.3c4.1,2.1,7.6,5.1,10.3,8.8v-11h19.6v77.6c0.1,6.6-1.4,13.2-4.3,19.1c-2.9,5.6-7.4,10.3-12.9,13.4  c-5.7,3.3-12.7,4.9-20.9,4.9c-10.9,0-19.9-2.5-26.9-7.6c-6.9-4.8-11.2-12.5-11.9-20.9h19.3c1,3.6,3.4,6.6,6.6,8.4  c3.7,2.2,8,3.3,12.3,3.1c5.7,0,10.2-1.7,13.8-5.1s5.3-8.5,5.3-15.4v-12c-2.7,3.8-6.2,6.9-10.4,9c-4.6,2.5-9.8,3.7-15.1,3.6  c-6.3,0.1-12.5-1.7-17.8-5c-5.5-3.4-9.9-8.3-12.7-14.1c-3.2-6.5-4.8-13.7-4.7-20.9c-0.1-7.2,1.5-14.3,4.7-20.7  c2.8-5.7,7.2-10.5,12.7-13.9c5.4-3.3,11.6-4.9,17.9-4.9C1085.3,313.8,1090.5,315,1095.2,317.3z M1102.8,341.5  c-1.7-3.2-4.3-5.9-7.5-7.8c-3.1-1.8-6.6-2.7-10.2-2.7c-7.3-0.1-14,3.9-17.5,10.4c-2,3.7-3,7.8-2.8,12c-0.1,4.2,0.9,8.4,2.8,12.2  c1.7,3.3,4.3,6.1,7.5,8c3,1.8,6.4,2.8,9.9,2.8c3.6,0,7.1-0.9,10.2-2.7c3.2-1.8,5.8-4.5,7.5-7.8  C1106.5,358.2,1106.5,349.2,1102.8,341.5L1102.8,341.5z"/>
<path class="st0" d="M1212.5,359.5h-56.3c0.5,5.6,2.4,9.9,5.8,13.1c3.4,3.2,8,4.9,12.7,4.7c7.2,0,12.4-3.1,15.4-9.3h21  c-2.2,7.3-6.7,13.7-12.8,18.3c-6.3,4.8-14,7.2-23.2,7.2c-7,0.1-13.9-1.6-20-4.9c-5.8-3.2-10.6-8.1-13.8-14  c-3.4-6.4-5.1-13.6-4.9-20.9c-0.2-7.3,1.5-14.5,4.9-21c3.1-5.9,7.8-10.7,13.6-13.9c12.5-6.4,27.3-6.5,39.9-0.1  c5.7,3.1,10.4,7.7,13.5,13.4c3.3,6.1,4.9,13,4.8,20C1213.1,354.6,1212.9,357.1,1212.5,359.5z M1192.9,346.5c0.1-4.6-1.9-9-5.4-12  c-3.6-3-8.2-4.7-12.9-4.5c-4.5-0.1-8.8,1.4-12.2,4.4c-3.3,2.9-5.4,7-6.1,12.2L1192.9,346.5z"/>
<path class="st0" d="M1237,390.1c-4.7-2-8.8-5.2-11.9-9.2c-2.9-3.7-4.5-8.2-4.8-12.9h19.6c0.4,3,2,5.6,4.4,7.4c2.8,2,6.1,3,9.5,2.9  c3.7,0,6.6-0.7,8.7-2.2c2-1.2,3.1-3.4,3.1-5.7c0-2.5-1.3-4.4-3.8-5.6c-3.9-1.7-8-3.1-12.2-4.1c-4.8-1.1-9.5-2.5-14.1-4.3  c-3.7-1.5-6.9-3.8-9.5-6.8c-2.7-3.1-4-7.2-4-12.4c0-4.2,1.3-8.3,3.7-11.7c2.7-3.7,6.3-6.6,10.6-8.4c5.1-2.1,10.7-3.2,16.2-3.1  c9.2,0,16.5,2.3,22,6.9c5.5,4.6,8.5,10.8,9,18.6H1265c-0.2-2.9-1.6-5.5-3.8-7.3c-2.3-1.8-5.3-2.7-9.1-2.7c-3.5,0-6.2,0.6-8.1,2  c-1.8,1.2-2.9,3.2-2.9,5.4c0,2.6,1.3,4.6,3.9,5.9c3.9,1.8,7.9,3.2,12.1,4.1c4.7,1.1,9.3,2.6,13.8,4.3c3.6,1.5,6.9,3.9,9.4,6.9  c2.7,3.1,4,7.2,4.1,12.3c0.1,4.3-1.2,8.5-3.7,12c-2.7,3.7-6.4,6.6-10.7,8.2c-5.1,2.1-10.6,3.1-16.1,3  C1248.1,393.6,1242.3,392.4,1237,390.1z"/>
<path class="st0" d="M1297.4,332.8c3.1-5.8,7.8-10.6,13.5-13.9c6-3.4,12.8-5.1,19.8-4.9c9.6,0,17.5,2.4,23.7,7.2  c6.3,4.8,10.5,11.5,12.6,20.1h-21c-1-3.2-3-5.9-5.6-7.9c-2.9-2-6.3-3-9.8-2.9c-5.6,0-10,2-13.2,6c-3.2,4-4.9,9.7-4.9,17.2  c0,7.3,1.6,13,4.9,17c3.2,4,8.1,6.3,13.2,6c7.9,0,13-3.5,15.4-10.6h21c-1.8,7.9-6.3,14.9-12.7,19.9c-6.3,4.9-14.2,7.4-23.7,7.4  c-6.9,0.1-13.7-1.6-19.8-4.9c-5.7-3.3-10.4-8.1-13.5-13.9C1290.9,361.3,1290.9,345.9,1297.4,332.8L1297.4,332.8z"/>
<path class="st0" d="M1437.4,317.9c4.6,2.6,8.3,6.5,10.6,11.3c2.6,5,3.8,10.9,3.8,17.9v45.2h-19.5v-42.6c0-6.1-1.5-10.8-4.6-14.1  c-3.1-3.3-7.2-4.9-12.5-4.9c-5.4,0-9.6,1.6-12.7,4.9s-4.7,8-4.7,14.1v42.6h-19.5V289.3h19.5v35.5c2.6-3.4,6.1-6.1,10-7.9  c4.4-1.9,9.1-2.9,13.9-2.9C1427.3,314,1432.7,315.3,1437.4,317.9z"/>
<path class="st0" d="M1481.8,388.6c-5.9-3.2-10.8-8.1-14-14c-3.5-6.4-5.2-13.6-5.1-20.9c-0.1-7.3,1.7-14.5,5.2-20.9  c3.3-5.9,8.3-10.8,14.3-14c12.6-6.6,27.7-6.6,40.3,0c6,3.2,10.9,8.1,14.3,14c3.6,6.4,5.4,13.6,5.2,20.9c0.1,7.3-1.7,14.5-5.3,20.9  c-3.4,5.9-8.5,10.8-14.5,14c-6.3,3.3-13.3,5-20.4,4.9C1494.9,393.6,1488,391.9,1481.8,388.6z M1511.8,374c3.2-1.8,5.8-4.5,7.4-7.7  c2-3.9,2.9-8.2,2.8-12.5c0-7.3-1.9-13-5.8-16.9c-3.7-3.9-8.8-6-14.1-5.9c-5.3-0.1-10.4,2-14,5.9c-3.8,3.9-5.6,9.6-5.6,16.9  c0,7.3,1.8,13,5.5,16.9c3.5,3.9,8.6,6,13.8,5.9C1505.3,376.5,1508.8,375.7,1511.8,374L1511.8,374z"/>
<path class="st0" d="M1567.8,388.6c-5.9-3.2-10.8-8.1-14-14c-3.5-6.4-5.2-13.6-5.1-20.9c-0.1-7.3,1.7-14.5,5.2-20.9  c3.3-5.9,8.3-10.8,14.3-14c12.6-6.6,27.7-6.6,40.3,0c6,3.2,10.9,8.1,14.3,14c3.6,6.4,5.4,13.6,5.2,20.9c0.1,7.3-1.7,14.5-5.3,20.9  c-3.4,5.9-8.5,10.8-14.5,14c-6.3,3.3-13.3,5-20.4,4.9C1580.8,393.6,1573.9,391.9,1567.8,388.6z M1597.8,374c3.2-1.8,5.8-4.5,7.4-7.7  c2-3.9,2.9-8.2,2.8-12.5c0-7.3-1.9-13-5.8-16.9c-3.7-3.9-8.8-6-14.1-5.9c-5.3-0.1-10.4,2-14,5.9c-3.7,3.9-5.6,9.6-5.6,16.9  c0,7.3,1.8,13,5.5,16.9c3.5,3.9,8.6,6,13.8,5.9C1591.3,376.5,1594.7,375.7,1597.8,374L1597.8,374z"/>
<path class="st0" d="M1659.1,289.3v102.9h-19.5V289.3H1659.1z"/>
<path class="st1" d="M712.1,273.6c0.5,44.9-35.5,81.8-80.5,82.3c-44.9,0.5-81.8-35.5-82.3-80.5c0-0.6,0-1.2,0-1.8h-77  c0.7,87.4,72.1,157.8,159.6,157.1c86.5-0.7,156.4-70.6,157.1-157.1H712.1z"/>
</svg>